<?xml version="1.0" encoding="UTF-8"?><svg id="Layer_1" xmlns="http://www.w3.org/2000/svg" viewBox="0 0 128 128"><defs><style>.cls-1{fill:#1e1e1c;}</style></defs><path class="cls-1" d="M64,44c0-8.3,2.9-15.4,8.7-21.2,5.8-5.8,12.9-8.7,21.2-8.7,0,7.5-2.4,14-7.1,19.5-4.7,5.5-10.7,8.8-17.9,10v10.5h40v20c0,2.7-1,5.1-2.9,7.1-2,2-4.3,2.9-7.1,2.9H29c-2.7,0-5.1-1-7.1-2.9-2-2-2.9-4.3-2.9-7.1v-20h40v-10.5c-7.2-1.2-13.1-4.5-17.9-10-4.7-5.5-7.1-12-7.1-19.5,8.3,0,15.4,2.9,21.2,8.7,5.8,5.8,8.7,12.9,8.7,21.2ZM99,74v-10H29v10h70ZM46.8,114c-2.3,0-4.4-.7-6.1-2.1-1.7-1.4-2.9-3.2-3.5-5.5l-5.6-22.4h65l-5.6,22.4c-.6,2.2-1.7,4.1-3.5,5.5-1.7,1.4-3.8,2.1-6.1,2.1h-34.5ZM81.2,104l5-20h-44.5l5,20h34.5Z"/></svg>