<?xml version="1.0" encoding="UTF-8"?><svg id="Layer_1" xmlns="http://www.w3.org/2000/svg" viewBox="0 0 128 128"><defs><style>.cls-1{fill:#1e1e1c;}</style></defs><path class="cls-1" d="M29,29h-10c0-2.7,1-5.1,2.9-7.1,2-2,4.3-2.9,7.1-2.9v10ZM19,49v-10h10v10h-10ZM19,69v-10h10v10h-10ZM19,89v-10h10v10h-10ZM29,99v10c-2.7,0-5.1-1-7.1-2.9-2-2-2.9-4.3-2.9-7.1h10ZM39,29v-10h10v10h-10ZM39,109v-10h10v10h-10ZM59,29v-10h10v10h-10ZM59,109v-50h50v10h-33l33,33-7,7-33-33v33h-10ZM79,29v-10h10v10h-10ZM99,29v-10c2.7,0,5.1,1,7.1,2.9,2,2,2.9,4.3,2.9,7.1h-10ZM99,49v-10h10v10h-10Z"/></svg>