<?xml version="1.0" encoding="UTF-8"?><svg id="Layer_1" xmlns="http://www.w3.org/2000/svg" viewBox="0 0 128 128"><defs><style>.cls-1{fill:#1e1e1c;}</style></defs><path class="cls-1" d="M59,111.5c-2.7,0-5.1-1-7.1-2.9-2-2-2.9-4.3-2.9-7.1v-20h-15c-2.7,0-5.1-1-7.1-2.9-2-2-2.9-4.3-2.9-7.1v-35c0-5.5,2-10.2,5.9-14.1,3.9-3.9,8.6-5.9,14.1-5.9h60v55c0,2.7-1,5.1-2.9,7.1-2,2-4.3,2.9-7.1,2.9h-15v20c0,2.7-1,5.1-2.9,7.1-2,2-4.3,2.9-7.1,2.9h-10ZM34,51.5h60v-25h-5v20h-10v-20h-5v10h-10v-10h-20c-2.7,0-5.1,1-7.1,2.9-2,2-2.9,4.3-2.9,7.1v15Z"/></svg>