<?xml version="1.0" encoding="UTF-8"?><svg id="Layer_1" xmlns="http://www.w3.org/2000/svg" viewBox="0 0 128 128"><defs><style>.cls-1{fill:#1e1e1c;}</style></defs><path class="cls-1" d="M99,49c-4.7,0-8.9-1.4-12.4-4.2-3.5-2.8-5.8-6.4-7-10.7h-31.4c-.9,3.5-2.6,6.5-5.2,9.1-2.5,2.5-5.6,4.3-9.1,5.2v31.4c4.3,1.2,7.9,3.5,10.7,7,2.8,3.5,4.2,7.6,4.2,12.4s-2,10.2-5.9,14.1c-3.9,3.9-8.6,5.9-14.1,5.9s-10.2-2-14.1-5.9c-3.9-3.9-5.9-8.6-5.9-14.1s1.4-8.9,4.2-12.4c2.8-3.5,6.4-5.8,10.7-7v-31.4c-4.3-1.2-7.9-3.5-10.7-7-2.8-3.5-4.2-7.6-4.2-12.2s2-10.2,5.9-14.1c3.9-3.9,8.6-5.9,14.1-5.9s8.7,1.4,12.2,4.2c3.5,2.8,5.8,6.4,7,10.7h31.4c1.2-4.3,3.5-7.9,7-10.7,3.5-2.8,7.6-4.2,12.4-4.2s10.2,2,14.1,5.9c3.9,3.9,5.9,8.6,5.9,14.1s-2,10.2-5.9,14.1c-3.9,3.9-8.6,5.9-14.1,5.9ZM29,39c2.7,0,5.1-1,7.1-2.9,2-2,2.9-4.3,2.9-7.1s-1-5.1-2.9-7.1c-2-2-4.3-2.9-7.1-2.9s-5,1-7,2.9c-2,2-3,4.3-3,7.1s1,5.1,3,7.1c2,2,4.3,2.9,7,2.9ZM29,109c2.7,0,5.1-1,7.1-3,2-2,2.9-4.3,2.9-7s-1-5.1-2.9-7.1c-2-2-4.3-2.9-7.1-2.9s-5,1-7,2.9c-2,2-3,4.3-3,7.1s1,5,3,7,4.3,3,7,3ZM99,119c-5.5,0-10.2-2-14.1-5.9-3.9-3.9-5.9-8.6-5.9-14.1s2-10.2,5.9-14.1c3.9-3.9,8.6-5.9,14.1-5.9s10.2,2,14.1,5.9c3.9,3.9,5.9,8.6,5.9,14.1s-2,10.2-5.9,14.1-8.6,5.9-14.1,5.9ZM99,39c2.7,0,5.1-1,7.1-2.9,2-2,2.9-4.3,2.9-7.1s-1-5.1-2.9-7.1c-2-2-4.3-2.9-7.1-2.9s-5.1,1-7.1,2.9c-2,2-2.9,4.3-2.9,7.1s1,5.1,2.9,7.1c2,2,4.3,2.9,7.1,2.9ZM99,109c2.7,0,5.1-1,7.1-3,2-2,2.9-4.3,2.9-7s-1-5.1-2.9-7.1c-2-2-4.3-2.9-7.1-2.9s-5.1,1-7.1,2.9-2.9,4.3-2.9,7.1,1,5,2.9,7c2,2,4.3,3,7.1,3Z"/></svg>