<?xml version="1.0" encoding="UTF-8"?><svg id="Layer_1" xmlns="http://www.w3.org/2000/svg" viewBox="0 0 128 128"><defs><style>.cls-1{fill:#1e1e1c;}</style></defs><path class="cls-1" d="M19,111.5v-50c0-2.7,1-5.1,2.9-7.1,2-2,4.3-2.9,7.1-2.9h30c2.7,0,5.1,1,7.1,2.9,2,2,2.9,4.3,2.9,7.1v50H19ZM29,51.5v-20c0-2.7,1-5.1,2.9-7.1,2-2,4.3-2.9,7.1-2.9h20v30h-10v-20h-10v20h-10ZM29,101.5h30v-40h-30v40ZM29,101.5h30-30ZM74,46.5c-1.4,0-2.6-.5-3.6-1.4-1-1-1.4-2.1-1.4-3.6s.5-2.6,1.4-3.6c1-1,2.1-1.4,3.6-1.4s2.6.5,3.6,1.4c1,1,1.4,2.1,1.4,3.6s-.5,2.6-1.4,3.6c-1,1-2.1,1.4-3.6,1.4ZM89,36.5c-1.4,0-2.6-.5-3.6-1.4-1-1-1.4-2.1-1.4-3.6s.5-2.6,1.4-3.6c1-1,2.1-1.4,3.6-1.4s2.6.5,3.6,1.4c1,1,1.4,2.1,1.4,3.6s-.5,2.6-1.4,3.6c-1,1-2.1,1.4-3.6,1.4ZM89,56.5c-1.4,0-2.6-.5-3.6-1.4-1-1-1.4-2.1-1.4-3.6s.5-2.6,1.4-3.6c1-1,2.1-1.4,3.6-1.4s2.6.5,3.6,1.4c1,1,1.4,2.1,1.4,3.6s-.5,2.6-1.4,3.6c-1,1-2.1,1.4-3.6,1.4ZM104,26.5c-1.4,0-2.6-.5-3.6-1.4-1-1-1.4-2.1-1.4-3.6s.5-2.6,1.4-3.6c1-1,2.1-1.4,3.6-1.4s2.6.5,3.6,1.4c1,1,1.4,2.1,1.4,3.6s-.5,2.6-1.4,3.6c-1,1-2.1,1.4-3.6,1.4ZM104,46.5c-1.4,0-2.6-.5-3.6-1.4-1-1-1.4-2.1-1.4-3.6s.5-2.6,1.4-3.6c1-1,2.1-1.4,3.6-1.4s2.6.5,3.6,1.4c1,1,1.4,2.1,1.4,3.6s-.5,2.6-1.4,3.6c-1,1-2.1,1.4-3.6,1.4ZM104,66.5c-1.4,0-2.6-.5-3.6-1.4-1-1-1.4-2.1-1.4-3.6s.5-2.6,1.4-3.6c1-1,2.1-1.4,3.6-1.4s2.6.5,3.6,1.4c1,1,1.4,2.1,1.4,3.6s-.5,2.6-1.4,3.6c-1,1-2.1,1.4-3.6,1.4Z"/></svg>