<?xml version="1.0" encoding="UTF-8"?><svg id="Layer_1" xmlns="http://www.w3.org/2000/svg" viewBox="0 0 128 128"><defs><style>.cls-1{fill:#1e1e1c;}</style></defs><path class="cls-1" d="M59,114c-8.3,0-15.4-2.9-21.2-8.7-5.8-5.8-8.7-12.9-8.7-21.2v-10c5.9,0,11.5,1.1,16.7,3.6,5.2,2.5,9.7,5.9,13.2,10.1v-19.1c-7.2-1.2-13.1-4.5-17.9-10.1-4.7-5.5-7.1-12.1-7.1-19.5v-17c0-2.2,1-3.7,2.9-4.6,1.9-.9,3.7-.6,5.4.8l9.2,8,8.6-10.5c1-1.2,2.3-1.7,3.9-1.7s2.9.6,3.9,1.7l8.6,10.5,9.2-8c1.7-1.4,3.5-1.7,5.4-.8,1.9.9,2.9,2.4,2.9,4.6v17c0,7.5-2.4,14-7.1,19.5-4.7,5.5-10.7,8.9-17.9,10.1v19.1c3.6-4.2,8-7.6,13.2-10.1,5.2-2.5,10.8-3.7,16.7-3.6v10c0,8.3-2.9,15.4-8.7,21.2s-12.9,8.7-21.2,8.7h-10Z"/></svg>