<?xml version="1.0" encoding="UTF-8"?><svg id="Layer_1" xmlns="http://www.w3.org/2000/svg" viewBox="0 0 128 128"><defs><style>.cls-1{fill:#1e1e1c;}</style></defs><path class="cls-1" d="M50.3,114l-2-16c-1.1-.4-2.1-.9-3.1-1.5-1-.6-1.9-1.2-2.8-1.9l-14.9,6.2-13.7-23.7,12.9-9.7c0-.6-.1-1.1-.1-1.7v-3.4c0-.5,0-1.1.1-1.7l-12.9-9.7,13.7-23.7,14.9,6.2c.9-.7,1.9-1.3,2.9-1.9,1-.6,2-1.1,3-1.5l2-16h27.5l2,16c1.1.4,2.1.9,3.1,1.5,1,.6,1.9,1.2,2.8,1.9l14.9-6.2,13.7,23.7-12.9,9.7c0,.6.1,1.1.1,1.7v3.4c0,.5,0,1.1-.2,1.7l12.9,9.7-13.7,23.7-14.7-6.2c-.9.7-1.9,1.3-2.9,1.9-1,.6-2,1.1-3,1.5l-2,16h-27.5ZM59,69h10v-25h-10v25ZM64,84c1.4,0,2.6-.5,3.6-1.4,1-1,1.4-2.1,1.4-3.6s-.5-2.6-1.4-3.6c-1-1-2.1-1.4-3.6-1.4s-2.6.5-3.6,1.4c-1,1-1.4,2.1-1.4,3.6s.5,2.6,1.4,3.6c1,1,2.1,1.4,3.6,1.4Z"/></svg>