<?xml version="1.0" encoding="UTF-8"?><svg id="Layer_1" xmlns="http://www.w3.org/2000/svg" viewBox="0 0 128 128"><defs><style>.cls-1{fill:#1e1e1c;}</style></defs><path class="cls-1" d="M104.3,113.5l-25.9-26c-1.9.9-4,1.6-6.2,2.2-2.2.5-4.5.8-6.8.8-8.3,0-15.4-2.9-21.2-8.7-5.8-5.8-8.7-12.9-8.7-21.2s.3-4.6.8-6.8c.5-2.2,1.3-4.3,2.2-6.2L12.5,21.5l7-7,91.9,91.9-7.1,7ZM24,88.4c-2.7-4-4.7-8.3-6.2-13.1-1.5-4.7-2.2-9.6-2.2-14.8s.8-10.2,2.2-14.9c1.5-4.7,3.6-9,6.2-13l8.4,5.5c-2.2,3.2-3.9,6.6-5.1,10.4-1.2,3.8-1.8,7.8-1.8,11.9s.6,8.1,1.8,11.9c1.2,3.7,2.9,7.2,5.1,10.4l-8.4,5.6ZM92.6,73.1l-39.7-39.7c1.9-.9,3.9-1.6,6.1-2.1,2.1-.5,4.3-.7,6.6-.7,8.3,0,15.4,2.9,21.2,8.7,5.8,5.8,8.7,12.9,8.7,21.2s-.2,4.4-.7,6.6c-.5,2.1-1.2,4.1-2.1,6.1ZM107.2,87.7l-7.2-7.2c1.7-2.9,3.1-6,4.1-9.4,1-3.3,1.4-6.9,1.4-10.6s-.6-8.1-1.8-11.9c-1.2-3.8-2.9-7.3-5.1-10.4l8.2-5.5c2.7,4,4.8,8.3,6.3,13,1.5,4.7,2.3,9.6,2.3,14.9s-.7,9.8-2.2,14.4c-1.5,4.6-3.5,8.9-6.1,12.9Z"/></svg>