<?xml version="1.0" encoding="UTF-8"?><svg id="Layer_1" xmlns="http://www.w3.org/2000/svg" viewBox="0 0 128 128"><defs><style>.cls-1{fill:#1e1e1c;}</style></defs><path class="cls-1" d="M57.8,120.2l-7-7.1,9.1-9.1h-16.7c-1.1,2.9-2.9,5.3-5.4,7.2-2.5,1.9-5.4,2.8-8.7,2.8s-7.7-1.5-10.6-4.4c-2.9-2.9-4.4-6.5-4.4-10.6s.9-6.1,2.8-8.7c1.9-2.5,4.3-4.4,7.2-5.4v-41.7c-2.9-1.1-5.3-2.9-7.2-5.4-1.9-2.5-2.8-5.4-2.8-8.7s1.5-7.7,4.4-10.6c2.9-2.9,6.5-4.4,10.6-4.4s6.1.9,8.7,2.8c2.5,1.9,4.4,4.3,5.4,7.2h16.7l-9.1-9.1,7-7.1,21.2,21.2-21.2,21.2-7-7.1,9.1-9.1h-16.7c-.7,2.2-1.9,4-3.5,5.6-1.6,1.6-3.5,2.7-5.6,3.5v41.7c2.2.7,4,1.9,5.6,3.5,1.6,1.6,2.7,3.5,3.5,5.6h16.7l-9.1-9.1,7-7.1,21.2,21.2-21.2,21.2ZM29,34c1.4,0,2.6-.5,3.6-1.4,1-1,1.4-2.1,1.4-3.6s-.5-2.6-1.4-3.6c-1-1-2.1-1.4-3.6-1.4s-2.6.5-3.6,1.4c-1,1-1.4,2.1-1.4,3.6s.5,2.6,1.4,3.6c1,1,2.1,1.4,3.6,1.4ZM29,104c1.4,0,2.6-.5,3.6-1.4s1.4-2.1,1.4-3.6-.5-2.6-1.4-3.6c-1-1-2.1-1.4-3.6-1.4s-2.6.5-3.6,1.4c-1,1-1.4,2.1-1.4,3.6s.5,2.6,1.4,3.6c1,1,2.1,1.4,3.6,1.4ZM99,114c-4.2,0-7.7-1.5-10.6-4.4-2.9-2.9-4.4-6.5-4.4-10.6s.9-6.3,2.8-8.8c1.9-2.5,4.3-4.3,7.2-5.3v-41.7c-2.9-1-5.3-2.8-7.2-5.3-1.9-2.5-2.8-5.5-2.8-8.8s1.5-7.7,4.4-10.6c2.9-2.9,6.5-4.4,10.6-4.4s7.7,1.5,10.6,4.4c2.9,2.9,4.4,6.5,4.4,10.6s-.9,6.3-2.8,8.8c-1.9,2.5-4.3,4.3-7.2,5.3v41.7c2.9,1.1,5.3,2.9,7.2,5.4,1.9,2.5,2.8,5.4,2.8,8.7s-1.5,7.7-4.4,10.6-6.5,4.4-10.6,4.4ZM99,34c1.4,0,2.6-.5,3.6-1.4,1-1,1.4-2.1,1.4-3.6s-.5-2.6-1.4-3.6c-1-1-2.1-1.4-3.6-1.4s-2.6.5-3.6,1.4c-1,1-1.4,2.1-1.4,3.6s.5,2.6,1.4,3.6c1,1,2.1,1.4,3.6,1.4ZM99,104c1.4,0,2.6-.5,3.6-1.4,1-1,1.4-2.1,1.4-3.6s-.5-2.6-1.4-3.6c-1-1-2.1-1.4-3.6-1.4s-2.6.5-3.6,1.4c-1,1-1.4,2.1-1.4,3.6s.5,2.6,1.4,3.6c1,1,2.1,1.4,3.6,1.4Z"/></svg>