<?xml version="1.0" encoding="UTF-8"?><svg id="Layer_1" xmlns="http://www.w3.org/2000/svg" viewBox="0 0 128 128"><defs><style>.cls-1{fill:#1e1e1c;}</style></defs><path class="cls-1" d="M34,59c-6.9,0-12.8-2.4-17.7-7.3-4.9-4.9-7.3-10.8-7.3-17.7s2.4-12.9,7.3-17.7c4.9-4.8,10.8-7.2,17.7-7.2s12.9,2.4,17.7,7.2c4.8,4.8,7.2,10.7,7.2,17.7s-2.4,12.8-7.2,17.7c-4.8,4.9-10.7,7.3-17.7,7.3ZM92.6,42.5l-50.1,50c.4,1,.8,2,1.1,3.1.3,1.1.4,2.2.4,3.4,0,4.2-1.4,7.7-4.3,10.6-2.9,2.9-6.4,4.4-10.7,4.4s-7.7-1.5-10.6-4.4c-2.9-2.9-4.4-6.5-4.4-10.6s1.5-7.8,4.4-10.7c2.9-2.9,6.5-4.3,10.6-4.3s2.3.1,3.4.4c1.1.3,2.1.6,3.1,1.1l50-50.1c-.4-1-.8-2-1.1-3.1-.3-1-.4-2.1-.4-3.3,0-4.2,1.5-7.8,4.4-10.7,2.9-2.9,6.5-4.3,10.6-4.3s7.8,1.4,10.7,4.3,4.3,6.4,4.3,10.7-1.4,7.7-4.3,10.6c-2.9,2.9-6.4,4.4-10.7,4.4s-2.3-.1-3.3-.4c-1-.3-2.1-.6-3.1-1.1ZM84,119c-2.7,0-5.1-1-7.1-2.9-2-2-2.9-4.3-2.9-7.1v-25c0-2.7,1-5.1,2.9-7.1,2-2,4.3-2.9,7.1-2.9h25c2.7,0,5.1,1,7.1,2.9,2,2,2.9,4.3,2.9,7.1v25c0,2.7-1,5.1-2.9,7.1-2,2-4.3,2.9-7.1,2.9h-25Z"/></svg>