<?xml version="1.0" encoding="UTF-8"?><svg id="Layer_1" xmlns="http://www.w3.org/2000/svg" viewBox="0 0 128 128"><defs><style>.cls-1{fill:#1e1e1c;}</style></defs><path class="cls-1" d="M22.5,91.9c-2.7-4-4.7-8.3-6.2-13.1-1.5-4.7-2.2-9.6-2.2-14.8s.8-10.2,2.2-14.9c1.5-4.7,3.6-9,6.2-13l8.4,5.5c-2.2,3.2-3.9,6.6-5.1,10.4-1.2,3.8-1.8,7.8-1.8,11.9s.6,8.1,1.8,11.9c1.2,3.7,2.9,7.2,5.1,10.4l-8.4,5.6ZM64,94c-8.3,0-15.4-2.9-21.2-8.7-5.8-5.8-8.7-12.9-8.7-21.2s2.9-15.4,8.7-21.2,12.9-8.7,21.2-8.7,15.4,2.9,21.2,8.7c5.8,5.8,8.7,12.9,8.7,21.2s-2.9,15.4-8.7,21.2-12.9,8.7-21.2,8.7ZM105.3,91.9l-8.2-5.6c2.2-3.2,4-6.6,5.1-10.4,1.2-3.7,1.7-7.7,1.7-11.9s-.6-8.1-1.7-11.9c-1.2-3.8-2.9-7.3-5.1-10.4l8.2-5.5c2.7,4,4.8,8.3,6.3,13,1.5,4.7,2.3,9.6,2.3,14.9s-.8,10.1-2.3,14.8c-1.5,4.7-3.6,9.1-6.3,13.1Z"/></svg>