<?xml version="1.0" encoding="UTF-8"?><svg id="Layer_1" xmlns="http://www.w3.org/2000/svg" viewBox="0 0 128 128"><defs><style>.cls-1{fill:#1e1e1c;}</style></defs><path class="cls-1" d="M14,64c0-6.9,1.3-13.4,3.9-19.5,2.6-6.1,6.2-11.4,10.7-15.9,4.5-4.5,9.8-8.1,15.9-10.7,6.1-2.6,12.6-3.9,19.5-3.9s7.4.4,11,1.2c3.6.8,7,2,10.4,3.6,1.3-.7,2.7-1.3,4.2-1.7,1.5-.4,2.9-.6,4.4-.6,4.8,0,9,1.7,12.4,5.1,3.4,3.4,5.1,7.5,5.1,12.4s-1.7,9-5.1,12.4c-3.4,3.4-7.5,5.1-12.4,5.1s-9-1.7-12.4-5.1c-3.4-3.4-5.1-7.5-5.1-12.4s.3-3.6.8-5.3c.5-1.7,1.4-3.3,2.4-4.8v3.4c-2.5-1.1-5.1-1.9-7.7-2.4-2.7-.5-5.3-.8-8-.8-11.2,0-20.6,3.9-28.4,11.6-7.7,7.7-11.6,17.2-11.6,28.4h-10ZM34,111.5c-4.8,0-9-1.7-12.4-5.1-3.4-3.4-5.1-7.5-5.1-12.4s1.7-9,5.1-12.4,7.5-5.1,12.4-5.1,9,1.7,12.4,5.1c3.4,3.4,5.1,7.5,5.1,12.4s-.3,3.6-.8,5.3c-.5,1.7-1.4,3.3-2.4,4.8v-3.4c2.5,1.1,5.1,1.9,7.7,2.4,2.7.5,5.3.8,8,.8,11.2,0,20.6-3.9,28.4-11.6s11.6-17.2,11.6-28.4h10c0,6.9-1.3,13.4-3.9,19.5-2.6,6.1-6.2,11.4-10.7,15.9-4.5,4.5-9.8,8.1-15.9,10.7-6.1,2.6-12.6,3.9-19.5,3.9s-7.4-.4-11-1.2c-3.6-.8-7-2-10.4-3.6-1.3.7-2.7,1.3-4.2,1.7-1.5.4-2.9.6-4.4.6ZM34,101.5c2.1,0,3.9-.7,5.3-2.2s2.2-3.2,2.2-5.3-.7-3.9-2.2-5.3c-1.5-1.5-3.2-2.2-5.3-2.2s-3.9.7-5.3,2.2-2.2,3.2-2.2,5.3.7,3.9,2.2,5.3c1.5,1.5,3.2,2.2,5.3,2.2ZM64,81.5c-4.8,0-9-1.7-12.4-5.1-3.4-3.4-5.1-7.5-5.1-12.4s1.7-9,5.1-12.4c3.4-3.4,7.5-5.1,12.4-5.1s9,1.7,12.4,5.1c3.4,3.4,5.1,7.5,5.1,12.4s-1.7,9-5.1,12.4-7.5,5.1-12.4,5.1ZM94,41.5c2.1,0,3.9-.7,5.3-2.2s2.2-3.2,2.2-5.3-.7-3.9-2.2-5.3c-1.5-1.5-3.2-2.2-5.3-2.2s-3.9.7-5.3,2.2-2.2,3.2-2.2,5.3.7,3.9,2.2,5.3c1.5,1.5,3.2,2.2,5.3,2.2Z"/></svg>